<mxfile host="app.diagrams.net" modified="2023-11-04T10:32:39.064Z" agent="Mozilla/5.0 (Windows NT 10.0; Win64; x64) AppleWebKit/537.36 (KHTML, like Gecko) Chrome/119.0.0.0 Safari/537.36" etag="QvUdkXl67w7NdX-K6GD4" version="22.0.8" type="device">
  <diagram name="Page-1" id="TMXN3tZIVZ4df0n1FO96">
    <mxGraphModel dx="880" dy="434" grid="1" gridSize="10" guides="1" tooltips="1" connect="1" arrows="1" fold="1" page="1" pageScale="1" pageWidth="827" pageHeight="1169" math="0" shadow="0">
      <root>
        <mxCell id="0" />
        <mxCell id="1" parent="0" />
        <mxCell id="mRyvtQejUuGf_-ZFASQg-1" value="" style="whiteSpace=wrap;html=1;aspect=fixed;fontStyle=0" vertex="1" parent="1">
          <mxGeometry x="40" y="60" width="190" height="190" as="geometry" />
        </mxCell>
        <mxCell id="mRyvtQejUuGf_-ZFASQg-2" value="Article" style="text;html=1;align=center;verticalAlign=middle;resizable=0;points=[];autosize=1;strokeColor=none;fillColor=none;fontStyle=1;fontSize=16;" vertex="1" parent="1">
          <mxGeometry x="90" y="70" width="70" height="30" as="geometry" />
        </mxCell>
        <mxCell id="mRyvtQejUuGf_-ZFASQg-3" value="" style="endArrow=none;html=1;rounded=0;exitX=0;exitY=0.25;exitDx=0;exitDy=0;entryX=1;entryY=0.25;entryDx=0;entryDy=0;" edge="1" parent="1" source="mRyvtQejUuGf_-ZFASQg-1" target="mRyvtQejUuGf_-ZFASQg-1">
          <mxGeometry width="50" height="50" relative="1" as="geometry">
            <mxPoint x="390" y="250" as="sourcePoint" />
            <mxPoint x="440" y="200" as="targetPoint" />
          </mxGeometry>
        </mxCell>
        <mxCell id="mRyvtQejUuGf_-ZFASQg-4" value="id_article" style="text;html=1;align=center;verticalAlign=middle;resizable=0;points=[];autosize=1;strokeColor=none;fillColor=none;" vertex="1" parent="1">
          <mxGeometry x="90" y="110" width="70" height="30" as="geometry" />
        </mxCell>
        <mxCell id="mRyvtQejUuGf_-ZFASQg-5" value="titre_article" style="text;html=1;align=center;verticalAlign=middle;resizable=0;points=[];autosize=1;strokeColor=none;fillColor=none;" vertex="1" parent="1">
          <mxGeometry x="85" y="140" width="80" height="30" as="geometry" />
        </mxCell>
        <mxCell id="mRyvtQejUuGf_-ZFASQg-7" value="contenue article" style="text;html=1;align=center;verticalAlign=middle;resizable=0;points=[];autosize=1;strokeColor=none;fillColor=none;" vertex="1" parent="1">
          <mxGeometry x="70" y="170" width="110" height="30" as="geometry" />
        </mxCell>
        <mxCell id="mRyvtQejUuGf_-ZFASQg-9" value="" style="whiteSpace=wrap;html=1;aspect=fixed;fontStyle=0" vertex="1" parent="1">
          <mxGeometry x="630" y="20" width="170" height="170" as="geometry" />
        </mxCell>
        <mxCell id="mRyvtQejUuGf_-ZFASQg-10" value="user" style="text;html=1;align=center;verticalAlign=middle;resizable=0;points=[];autosize=1;strokeColor=none;fillColor=none;fontStyle=1;fontSize=16;" vertex="1" parent="1">
          <mxGeometry x="685" y="30" width="60" height="30" as="geometry" />
        </mxCell>
        <mxCell id="mRyvtQejUuGf_-ZFASQg-11" value="" style="endArrow=none;html=1;rounded=0;exitX=0;exitY=0.25;exitDx=0;exitDy=0;entryX=1;entryY=0.25;entryDx=0;entryDy=0;" edge="1" parent="1" source="mRyvtQejUuGf_-ZFASQg-9" target="mRyvtQejUuGf_-ZFASQg-9">
          <mxGeometry width="50" height="50" relative="1" as="geometry">
            <mxPoint x="980" y="210" as="sourcePoint" />
            <mxPoint x="1030" y="160" as="targetPoint" />
          </mxGeometry>
        </mxCell>
        <mxCell id="mRyvtQejUuGf_-ZFASQg-12" value="id_user" style="text;html=1;align=center;verticalAlign=middle;resizable=0;points=[];autosize=1;strokeColor=none;fillColor=none;" vertex="1" parent="1">
          <mxGeometry x="685" y="70" width="60" height="30" as="geometry" />
        </mxCell>
        <mxCell id="mRyvtQejUuGf_-ZFASQg-13" value="nom_user" style="text;html=1;align=center;verticalAlign=middle;resizable=0;points=[];autosize=1;strokeColor=none;fillColor=none;" vertex="1" parent="1">
          <mxGeometry x="675" y="100" width="80" height="30" as="geometry" />
        </mxCell>
        <mxCell id="mRyvtQejUuGf_-ZFASQg-14" value="mot_de_passe_user" style="text;html=1;align=center;verticalAlign=middle;resizable=0;points=[];autosize=1;strokeColor=none;fillColor=none;" vertex="1" parent="1">
          <mxGeometry x="650" y="130" width="130" height="30" as="geometry" />
        </mxCell>
        <mxCell id="mRyvtQejUuGf_-ZFASQg-15" value="id_user" style="text;html=1;align=center;verticalAlign=middle;resizable=0;points=[];autosize=1;strokeColor=none;fillColor=none;" vertex="1" parent="1">
          <mxGeometry x="95" y="200" width="60" height="30" as="geometry" />
        </mxCell>
        <mxCell id="mRyvtQejUuGf_-ZFASQg-17" value="" style="whiteSpace=wrap;html=1;aspect=fixed;fontStyle=0" vertex="1" parent="1">
          <mxGeometry x="350" y="270" width="150" height="150" as="geometry" />
        </mxCell>
        <mxCell id="mRyvtQejUuGf_-ZFASQg-18" value="Like" style="text;html=1;align=center;verticalAlign=middle;resizable=0;points=[];autosize=1;strokeColor=none;fillColor=none;fontStyle=1;fontSize=16;" vertex="1" parent="1">
          <mxGeometry x="395" y="280" width="60" height="30" as="geometry" />
        </mxCell>
        <mxCell id="mRyvtQejUuGf_-ZFASQg-19" value="" style="endArrow=none;html=1;rounded=0;exitX=0;exitY=0.25;exitDx=0;exitDy=0;entryX=1;entryY=0.25;entryDx=0;entryDy=0;" edge="1" parent="1" source="mRyvtQejUuGf_-ZFASQg-17" target="mRyvtQejUuGf_-ZFASQg-17">
          <mxGeometry width="50" height="50" relative="1" as="geometry">
            <mxPoint x="690" y="460" as="sourcePoint" />
            <mxPoint x="740" y="410" as="targetPoint" />
          </mxGeometry>
        </mxCell>
        <mxCell id="mRyvtQejUuGf_-ZFASQg-20" value="id_like" style="text;html=1;align=center;verticalAlign=middle;resizable=0;points=[];autosize=1;strokeColor=none;fillColor=none;" vertex="1" parent="1">
          <mxGeometry x="395" y="320" width="60" height="30" as="geometry" />
        </mxCell>
        <mxCell id="mRyvtQejUuGf_-ZFASQg-21" value="id_article_like" style="text;html=1;align=center;verticalAlign=middle;resizable=0;points=[];autosize=1;strokeColor=none;fillColor=none;" vertex="1" parent="1">
          <mxGeometry x="375" y="350" width="100" height="30" as="geometry" />
        </mxCell>
        <mxCell id="mRyvtQejUuGf_-ZFASQg-22" value="id_user_like" style="text;html=1;align=center;verticalAlign=middle;resizable=0;points=[];autosize=1;strokeColor=none;fillColor=none;" vertex="1" parent="1">
          <mxGeometry x="380" y="380" width="90" height="30" as="geometry" />
        </mxCell>
        <mxCell id="mRyvtQejUuGf_-ZFASQg-23" value="" style="endArrow=classic;startArrow=classic;html=1;rounded=0;exitX=-0.027;exitY=0.6;exitDx=0;exitDy=0;exitPerimeter=0;entryX=1.016;entryY=0.326;entryDx=0;entryDy=0;entryPerimeter=0;" edge="1" parent="1" source="mRyvtQejUuGf_-ZFASQg-17" target="mRyvtQejUuGf_-ZFASQg-1">
          <mxGeometry width="50" height="50" relative="1" as="geometry">
            <mxPoint x="300" y="160" as="sourcePoint" />
            <mxPoint x="280" y="120" as="targetPoint" />
            <Array as="points">
              <mxPoint x="280" y="360" />
              <mxPoint x="280" y="122" />
            </Array>
          </mxGeometry>
        </mxCell>
        <mxCell id="mRyvtQejUuGf_-ZFASQg-25" value="" style="endArrow=classic;startArrow=classic;html=1;rounded=0;exitX=0.993;exitY=0.873;exitDx=0;exitDy=0;exitPerimeter=0;" edge="1" parent="1" source="mRyvtQejUuGf_-ZFASQg-17">
          <mxGeometry width="50" height="50" relative="1" as="geometry">
            <mxPoint x="560" y="400" as="sourcePoint" />
            <mxPoint x="630" y="80" as="targetPoint" />
            <Array as="points">
              <mxPoint x="560" y="401" />
              <mxPoint x="560" y="80" />
            </Array>
          </mxGeometry>
        </mxCell>
        <mxCell id="mRyvtQejUuGf_-ZFASQg-26" value="" style="endArrow=classic;startArrow=classic;html=1;rounded=0;exitX=1.011;exitY=0.832;exitDx=0;exitDy=0;exitPerimeter=0;entryX=-0.024;entryY=0.388;entryDx=0;entryDy=0;entryPerimeter=0;" edge="1" parent="1" source="mRyvtQejUuGf_-ZFASQg-1" target="mRyvtQejUuGf_-ZFASQg-9">
          <mxGeometry width="50" height="50" relative="1" as="geometry">
            <mxPoint x="390" y="230" as="sourcePoint" />
            <mxPoint x="580" y="200" as="targetPoint" />
            <Array as="points">
              <mxPoint x="600" y="200" />
            </Array>
          </mxGeometry>
        </mxCell>
      </root>
    </mxGraphModel>
  </diagram>
</mxfile>
